<?xml version="1.0" standalone="no"?>
<!DOCTYPE svg PUBLIC "-//W3C//DTD SVG 20010904//EN"
 "http://www.w3.org/TR/2001/REC-SVG-20010904/DTD/svg10.dtd">
<svg version="1.0" xmlns="http://www.w3.org/2000/svg"
 width="612.000000pt" height="612.000000pt" viewBox="0 0 612.000000 612.000000"
 preserveAspectRatio="xMidYMid meet">
<metadata>
Created by potrace 1.14, written by Peter Selinger 2001-2017
</metadata>
<g transform="translate(0.000000,612.000000) scale(0.100000,-0.100000)"
fill="#000000" stroke="none">
<path d="M1560 5695 c0 -10 7 -15 18 -13 21 4 19 22 -2 26 -10 2 -16 -3 -16
-13z"/>
<path d="M3035 5690 c-8 -13 3 -30 21 -30 18 0 18 14 0 29 -10 8 -16 9 -21 1z"/>
<path d="M1450 5660 c-12 -7 -12 -12 -3 -21 9 -9 16 -9 27 1 26 21 5 39 -24
20z"/>
<path d="M1587 5548 c24 -62 53 -135 63 -163 30 -82 66 -163 77 -177 6 -7 43
-96 82 -198 40 -102 85 -212 101 -245 26 -53 96 -223 104 -250 1 -5 9 -26 18
-46 9 -20 19 -47 23 -60 4 -13 25 -62 47 -108 21 -46 37 -90 34 -97 -3 -8 -19
-14 -35 -14 -24 0 -34 7 -46 30 -9 17 -13 35 -10 39 3 5 -1 22 -9 38 -8 15
-19 39 -24 53 -92 230 -146 371 -170 440 -17 47 -57 154 -91 238 -34 85 -61
159 -61 166 0 8 -8 33 -19 57 -10 24 -49 123 -86 219 -74 190 -73 186 -80 178
-3 -3 33 -103 80 -223 47 -120 84 -224 81 -231 -3 -7 35 -113 84 -235 49 -122
87 -225 85 -229 -2 -4 36 -108 85 -231 49 -123 90 -234 90 -246 0 -12 5 -34
12 -48 6 -14 9 -28 6 -31 -3 -3 -35 -12 -69 -20 -126 -29 -356 -98 -439 -131
-208 -84 -438 -227 -532 -332 -383 -427 -450 -1807 -116 -2369 50 -83 131
-166 222 -226 93 -62 247 -140 356 -181 97 -37 101 -40 89 -71 -16 -44 -10
-165 10 -210 44 -97 139 -47 221 116 12 25 24 47 26 49 1 1 51 -9 111 -23 405
-96 982 -150 1371 -127 341 21 671 65 927 126 59 14 111 25 115 25 5 0 24 -30
42 -67 40 -82 107 -153 143 -153 65 0 106 109 85 227 -6 36 -7 69 -3 73 4 3
42 19 83 35 245 92 445 222 540 350 290 391 342 1450 103 2095 -96 261 -202
388 -436 528 -307 183 -756 306 -1362 372 -188 21 -621 24 -830 6 -104 -9
-202 -19 -217 -22 -21 -4 -28 -2 -28 10 0 8 4 17 10 21 5 3 7 11 5 18 -3 7 47
109 110 227 63 118 115 221 115 228 0 7 48 102 107 210 59 108 108 209 109
223 1 14 52 117 112 229 61 112 109 206 107 209 -3 2 -7 2 -9 0 -12 -15 -218
-403 -232 -439 -10 -25 -32 -70 -49 -100 -47 -83 -52 -93 -150 -285 -96 -187
-230 -439 -245 -460 -4 -5 -11 -25 -15 -42 -3 -18 -11 -33 -16 -33 -6 0 -8 -4
-4 -10 7 -11 -71 -34 -85 -25 -15 9 -13 16 26 75 34 51 98 167 204 365 24 44
48 87 55 95 7 8 19 29 27 45 13 27 29 57 123 230 15 28 37 68 47 90 11 22 30
54 43 70 20 27 93 159 203 368 23 42 37 77 32 77 -5 0 -59 -94 -120 -210 -62
-115 -117 -208 -122 -207 -5 1 -60 -92 -122 -206 -62 -115 -117 -212 -123
-215 -5 -4 -60 -101 -122 -217 -63 -115 -123 -220 -135 -232 -12 -11 -34 -48
-50 -81 -24 -51 -34 -61 -59 -65 -27 -4 -31 0 -50 45 -11 26 -23 48 -27 48 -5
0 -50 105 -101 232 -51 128 -97 238 -103 244 -7 6 -50 108 -96 227 -47 119
-90 217 -96 217 -6 0 -50 99 -98 220 -49 121 -92 220 -96 220 -5 0 12 -51 37
-112z m1213 -2008 c0 -19 7 -20 120 -20 113 0 120 -1 120 -20 0 -17 7 -20 40
-20 29 0 40 4 40 15 0 11 11 15 40 15 29 0 40 -4 40 -15 0 -11 11 -15 40 -15
33 0 40 -3 40 -20 0 -17 7 -20 40 -20 33 0 40 -3 40 -20 0 -17 7 -20 40 -20
33 0 40 -3 40 -20 0 -17 7 -20 40 -20 35 0 40 -3 40 -23 0 -14 16 -39 40 -62
37 -36 40 -37 40 -16 0 25 19 24 32 -2 4 -9 12 -25 17 -34 4 -10 18 -19 30
-21 12 -2 27 -12 34 -23 6 -10 20 -19 29 -19 11 0 18 -7 18 -18 0 -9 9 -23 20
-30 16 -9 20 -23 20 -62 0 -43 3 -50 20 -50 17 0 20 -7 20 -40 0 -33 3 -40 20
-40 17 0 20 -7 20 -40 0 -33 3 -40 20 -40 17 0 20 -7 20 -44 0 -40 2 -44 23
-40 12 2 15 1 7 -2 -23 -11 -31 -27 -25 -53 6 -23 5 -23 -47 -18 -29 3 -100
12 -158 20 -119 18 -388 37 -562 40 -91 2 -118 0 -118 -10 0 -7 10 -13 23 -14
21 -1 21 -1 -3 -8 -23 -7 -23 -8 -5 -13 11 -4 37 -9 58 -13 l37 -6 0 -53 c0
-39 4 -55 15 -60 10 -3 15 -19 15 -46 0 -27 -5 -43 -15 -46 -11 -5 -15 -21
-15 -60 l0 -54 -40 0 c-29 0 -40 -4 -40 -15 0 -8 -7 -15 -15 -15 -9 0 -15 -9
-15 -25 0 -18 -5 -25 -20 -25 -26 0 -60 -34 -60 -60 0 -17 -7 -20 -40 -20 -37
0 -40 -2 -40 -28 0 -25 -6 -31 -40 -42 -22 -7 -40 -19 -40 -27 0 -10 -26 -13
-120 -13 -91 0 -120 3 -120 13 0 8 -27 19 -67 28 -62 14 -68 17 -71 42 -2 18
-9 27 -21 27 -10 0 -37 18 -61 40 -24 22 -47 40 -52 40 -5 0 -19 11 -32 25
-13 14 -28 25 -35 25 -6 0 -11 7 -11 15 0 11 -11 15 -40 15 l-40 0 0 54 c0 39
-4 55 -15 60 -22 8 -22 126 0 126 11 0 15 11 15 40 l0 40 48 0 c34 0 43 3 32
10 -12 8 -10 10 9 10 43 0 15 11 -40 16 -85 7 -70 15 24 13 48 -1 90 1 94 4 3
4 -14 7 -38 8 -68 1 -240 -3 -279 -6 -40 -3 -60 3 -60 17 0 12 -101 162 -112
166 -4 2 -8 8 -8 14 0 5 -9 22 -20 36 -30 39 -110 164 -110 171 0 3 -12 19
-26 36 -28 33 -15 48 17 19 11 -10 19 -12 19 -6 0 7 -4 12 -10 12 -5 0 -10 6
-10 13 0 19 72 72 99 72 13 0 28 8 32 18 5 9 13 25 18 35 6 12 22 18 60 20 43
3 51 6 51 23 0 16 7 19 40 19 33 0 40 3 40 20 0 17 7 20 40 20 33 0 40 3 40
20 0 19 7 20 120 20 113 0 120 1 120 20 0 19 7 20 120 20 113 0 120 1 120 20
0 19 7 20 120 20 113 0 120 -1 120 -20z m2391 -340 c10 -6 19 -15 19 -20 0 -5
-20 3 -45 17 -25 13 -45 26 -45 29 0 4 43 -12 71 -26z m118 -133 c0 -7 -8 -1
-17 13 -9 13 -30 40 -46 60 -15 19 -7 13 18 -13 25 -27 46 -54 45 -60z m-3819
52 c0 -6 -4 -7 -10 -4 -5 3 -10 11 -10 16 0 6 5 7 10 4 6 -3 10 -11 10 -16z
m3480 -9 c0 -15 -5 -12 -26 11 -19 22 -19 22 4 10 12 -6 22 -16 22 -21z
m-3465 -20 c3 -5 1 -10 -4 -10 -6 0 -11 5 -11 10 0 6 2 10 4 10 3 0 8 -4 11
-10z m22 -37 c-2 -16 -2 -22 0 -15 8 21 17 13 70 -61 28 -39 63 -85 76 -102
92 -113 118 -147 113 -152 -2 -3 -38 -9 -78 -13 -40 -5 -104 -14 -143 -20 -38
-5 -89 -13 -112 -16 -35 -5 -47 -2 -72 17 -38 30 -38 39 -3 40 23 2 24 2 5 6
-13 2 -23 10 -23 16 0 7 -4 6 -10 -3 -5 -8 -12 -12 -15 -8 -4 3 -1 15 6 26 10
17 10 25 -4 46 -10 14 -13 26 -8 26 5 0 12 -6 15 -12 5 -10 7 -10 12 0 3 6 14
12 25 12 16 0 19 7 19 40 0 33 3 40 20 40 16 0 20 7 20 37 0 30 8 45 42 80 23
24 44 43 46 43 2 0 2 -12 -1 -27z m1653 -333 c-36 -12 -60 -12 -60 0 0 6 19
10 43 9 36 -1 38 -2 17 -9z m770 -4 c0 -3 -4 -8 -10 -11 -5 -3 -10 -1 -10 4 0
6 5 11 10 11 6 0 10 -2 10 -4z m-750 -131 c0 -8 -4 -15 -10 -15 -5 0 -10 7
-10 15 0 8 5 15 10 15 6 0 10 -7 10 -15z m-1100 -130 c0 -8 -4 -15 -10 -15 -5
0 -10 7 -10 15 0 8 5 15 10 15 6 0 10 -7 10 -15z m1100 0 c0 -8 -4 -15 -10
-15 -5 0 -10 7 -10 15 0 8 5 15 10 15 6 0 10 -7 10 -15z m-1010 -160 c0 -8 -7
-15 -15 -15 -8 0 -15 7 -15 15 0 8 7 15 15 15 8 0 15 -7 15 -15z m930 -5 c0
-13 -5 -18 -15 -14 -8 4 -15 12 -15 20 0 8 7 14 15 14 8 0 15 -9 15 -20z
m-889 -23 c-7 -7 -14 -8 -21 -1 -6 6 -2 10 12 11 16 2 18 -1 9 -10z m799 -52
c-11 -13 -10 -14 4 -9 12 5 15 2 10 -10 -3 -9 -15 -16 -25 -16 -10 0 -19 -4
-19 -8 0 -5 -6 -9 -14 -9 -8 0 -12 6 -9 14 3 7 8 11 13 8 4 -2 12 7 18 20 7
14 17 25 23 25 8 0 8 -4 -1 -15z m-710 -35 c0 -12 -7 -20 -16 -20 -10 0 -14 5
-10 16 3 8 2 12 -4 9 -6 -3 -10 -1 -10 4 0 6 9 11 20 11 13 0 20 -7 20 -20z
m2760 -147 c0 -7 -39 17 -46 28 -3 6 5 3 20 -6 14 -10 26 -19 26 -22z m-2360
17 c0 -5 -18 -10 -40 -10 -22 0 -40 5 -40 10 0 6 18 10 40 10 22 0 40 -4 40
-10z m2374 -46 c3 -8 2 -12 -4 -9 -6 3 -10 10 -10 16 0 14 7 11 14 -7z"/>
<path d="M2298 2693 c7 -3 16 -2 19 1 4 3 -2 6 -13 5 -11 0 -14 -3 -6 -6z"/>
<path d="M3100 2565 c0 -8 5 -15 10 -15 6 0 10 7 10 15 0 8 -4 15 -10 15 -5 0
-10 -7 -10 -15z"/>
<path d="M2160 2475 c0 -8 5 -15 10 -15 6 0 10 7 10 15 0 8 -4 15 -10 15 -5 0
-10 -7 -10 -15z"/>
<path d="M3100 2475 c0 -8 5 -15 10 -15 6 0 10 7 10 15 0 8 -4 15 -10 15 -5 0
-10 -7 -10 -15z"/>
<path d="M3026 2411 c-4 -7 -5 -15 -2 -18 9 -9 19 4 14 18 -4 11 -6 11 -12 0z"/>
<path d="M2968 2363 c7 -3 16 -2 19 1 4 3 -2 6 -13 5 -11 0 -14 -3 -6 -6z"/>
<path d="M2543 2193 c9 -2 17 -13 17 -24 0 -19 11 -25 23 -12 10 10 -24 43
-42 42 -13 -1 -13 -2 2 -6z"/>
<path d="M2780 2191 c0 -6 5 -13 10 -16 6 -3 10 1 10 9 0 9 -4 16 -10 16 -5 0
-10 -4 -10 -9z"/>
<path d="M3130 5630 c0 -16 38 -32 46 -19 7 12 -12 29 -33 29 -7 0 -13 -4 -13
-10z"/>
</g>
</svg>
